<?xml version="1.0" encoding="utf-8"?>
<!-- Generator: Adobe Illustrator 20.1.0, SVG Export Plug-In . SVG Version: 6.00 Build 0)  -->
<svg version="1.1" id="Layer_1" xmlns="http://www.w3.org/2000/svg" xmlns:xlink="http://www.w3.org/1999/xlink" x="0px" y="0px"
	 viewBox="0 0 423 116.5" style="enable-background:new 0 0 423 116.5;" xml:space="preserve">
<style type="text/css">
	.st0{fill:#63056D;}
</style>
<g>
	<path d="M389.2,114.5h-15.3V35.8h27.3v66.7C401.1,109.1,395.8,114.5,389.2,114.5z"/>
	<path d="M356,57.6V35.8h62.9v12.9c0,4.9-4,8.9-8.9,8.9H356z"/>
</g>
<g>
	<path d="M333.3,113.3h-17.8c-5.2,0-9.5-4.2-9.5-9.5V34.6h27.3V113.3z"/>
	<path d="M306,55.6V34.7c0,0,0,0,0,0h43.7c0,0,0,0,0,0v13.7c0,4-3.2,7.2-7.2,7.2L306,55.6C306,55.6,306,55.6,306,55.6z"/>
	<path d="M314.9,113V92.6c0-0.1,0.1-0.2,0.2-0.2h27.4c4,0,7.2,3.2,7.2,7.2V113c0,0.1-0.1,0.2-0.2,0.2h-34.4
		C315,113.3,314.9,113.2,314.9,113z"/>
	<rect x="313.4" y="57.3" transform="matrix(-1.836970e-16 1 -1 -1.836970e-16 399.0119 -248.7646)" width="20.9" height="35.7"/>
</g>
<g>
	<path class="st0" d="M193.3,113.3h-10.6v-59c0-10.9,8.8-19.7,19.7-19.7h7.6v62C209.9,105.8,202.5,113.3,193.3,113.3z"/>
	<circle class="st0" cx="196.3" cy="16.3" r="13.6"/>
</g>
<g>
	<rect x="58.4" y="34.6" class="st0" width="27.3" height="78.7"/>
	<g>
		<path class="st0" d="M32.5,113.3h-4.3c-12.7,0-22.9-10.3-22.9-22.9V34.6h0c15.1,0,27.3,12.2,27.3,27.3V113.3z"/>
		
			<rect x="43.3" y="71" transform="matrix(-1.836970e-16 1 -1 -1.836970e-16 156.5898 42.6614)" class="st0" width="27.3" height="57.3"/>
	</g>
</g>
<g>
	<rect x="219.3" y="34.5" transform="matrix(-1 -1.224647e-16 1.224647e-16 -1 465.9148 147.6844)" width="27.3" height="78.7"/>
	<g>
		<path d="M272.5,34.5h4.3c12.7,0,22.9,10.3,22.9,22.9v55.7h0c-15.1,0-27.3-12.2-27.3-27.3V34.5z"/>
		<rect x="234.3" y="19.5" transform="matrix(6.123234e-17 -1 1 6.123234e-17 199.8475 296.1059)" width="27.3" height="57.3"/>
	</g>
</g>
<g>
	
		<rect x="92.5" y="34" transform="matrix(-1 -1.224647e-16 1.224647e-16 -1 212.249 146.6032)" class="st0" width="27.3" height="78.7"/>
	<g>
		<path class="st0" d="M145.6,34h4.3c12.7,0,22.9,10.3,22.9,22.9v55.7h0c-15.1,0-27.3-12.2-27.3-27.3V34z"/>
		
			<rect x="107.5" y="18.9" transform="matrix(6.123234e-17 -1 1 6.123234e-17 73.5552 168.7324)" class="st0" width="27.3" height="57.3"/>
	</g>
</g>
</svg>